<svg xmlns="http://www.w3.org/2000/svg" viewBox="0 0 616 84" width="616" height="84">
<rect x="0" y="0" width="7" height="12" fill="#56d4c8"/><rect x="7" y="0" width="7" height="12" fill="#56d4c8"/><rect x="14" y="0" width="7" height="12" fill="#56d4c8"/><rect x="21" y="0" width="7" height="12" fill="#56d4c8"/><rect x="28" y="0" width="7" height="12" fill="#56d4c8"/><rect x="35" y="0" width="7" height="12" fill="#56d4c8"/><rect x="42" y="0" width="7" height="12" fill="#56d4c8"/><rect x="49" y="0" width="7" height="12" fill="#56d4c8"/><rect x="56" y="0" width="7" height="12" fill="#56d4c8"/><rect x="63" y="0" width="7" height="12" fill="#56d4c8"/><rect x="70" y="0" width="7" height="12" fill="#56d4c8"/><rect x="77" y="0" width="7" height="12" fill="#56d4c8"/><rect x="84" y="0" width="7" height="12" fill="#56d4c8"/><rect x="112" y="0" width="7" height="12" fill="#2a7a72"/><rect x="119" y="0" width="7" height="12" fill="#56d4c8"/><rect x="126" y="0" width="7" height="12" fill="#56d4c8"/><rect x="133" y="0" width="7" height="12" fill="#56d4c8"/><rect x="140" y="0" width="7" height="12" fill="#56d4c8"/><rect x="147" y="0" width="7" height="12" fill="#56d4c8"/><rect x="154" y="0" width="7" height="12" fill="#56d4c8"/><rect x="161" y="0" width="7" height="12" fill="#56d4c8"/><rect x="168" y="0" width="7" height="12" fill="#56d4c8"/><rect x="175" y="0" width="7" height="12" fill="#56d4c8"/><rect x="182" y="0" width="7" height="12" fill="#56d4c8"/><rect x="189" y="0" width="7" height="12" fill="#56d4c8"/><rect x="196" y="0" width="7" height="12" fill="#56d4c8"/><rect x="231" y="0" width="7" height="12" fill="#56d4c8"/><rect x="238" y="0" width="7" height="12" fill="#56d4c8"/><rect x="245" y="0" width="7" height="12" fill="#56d4c8"/><rect x="252" y="0" width="7" height="12" fill="#56d4c8"/><rect x="259" y="0" width="7" height="12" fill="#56d4c8"/><rect x="266" y="0" width="7" height="12" fill="#56d4c8"/><rect x="273" y="0" width="7" height="12" fill="#56d4c8"/><rect x="280" y="0" width="7" height="12" fill="#56d4c8"/><rect x="287" y="0" width="7" height="12" fill="#56d4c8"/><rect x="294" y="0" width="7" height="12" fill="#56d4c8"/><rect x="301" y="0" width="7" height="12" fill="#56d4c8"/><rect x="308" y="0" width="7" height="12" fill="#56d4c8"/><rect x="315" y="0" width="7" height="12" fill="#2a7a72"/><rect x="399" y="0" width="7" height="12" fill="#2a7a72"/><rect x="406" y="0" width="7" height="12" fill="#56d4c8"/><rect x="413" y="0" width="7" height="12" fill="#56d4c8"/><rect x="420" y="0" width="7" height="12" fill="#56d4c8"/><rect x="427" y="0" width="7" height="12" fill="#56d4c8"/><rect x="434" y="0" width="7" height="12" fill="#56d4c8"/><rect x="441" y="0" width="7" height="12" fill="#56d4c8"/><rect x="448" y="0" width="7" height="12" fill="#56d4c8"/><rect x="455" y="0" width="7" height="12" fill="#56d4c8"/><rect x="462" y="0" width="7" height="12" fill="#56d4c8"/><rect x="469" y="0" width="7" height="12" fill="#56d4c8"/><rect x="476" y="0" width="7" height="12" fill="#56d4c8"/><rect x="483" y="0" width="7" height="12" fill="#3a9e95"/><rect x="518" y="0" width="7" height="12" fill="#3a9e95"/><rect x="525" y="0" width="7" height="12" fill="#56d4c8"/><rect x="532" y="0" width="7" height="12" fill="#56d4c8"/><rect x="539" y="0" width="7" height="12" fill="#56d4c8"/><rect x="546" y="0" width="7" height="12" fill="#56d4c8"/><rect x="553" y="0" width="7" height="12" fill="#56d4c8"/><rect x="560" y="0" width="7" height="12" fill="#56d4c8"/><rect x="567" y="0" width="7" height="12" fill="#56d4c8"/><rect x="574" y="0" width="7" height="12" fill="#56d4c8"/><rect x="581" y="0" width="7" height="12" fill="#56d4c8"/><rect x="588" y="0" width="7" height="12" fill="#56d4c8"/><rect x="595" y="0" width="7" height="12" fill="#56d4c8"/><rect x="602" y="0" width="7" height="12" fill="#2a7a72"/><rect x="0" y="12" width="7" height="12" fill="#56d4c8"/><rect x="7" y="12" width="7" height="12" fill="#56d4c8"/><rect x="14" y="12" width="7" height="12" fill="#2a7a72"/><rect x="203" y="12" width="7" height="12" fill="#56d4c8"/><rect x="210" y="12" width="7" height="12" fill="#56d4c8"/><rect x="217" y="12" width="7" height="12" fill="#3a9e95"/><rect x="315" y="12" width="7" height="12" fill="#3a9e95"/><rect x="322" y="12" width="7" height="12" fill="#56d4c8"/><rect x="329" y="12" width="7" height="12" fill="#56d4c8"/><rect x="406" y="12" width="7" height="12" fill="#2a7a72"/><rect x="413" y="12" width="7" height="12" fill="#56d4c8"/><rect x="420" y="12" width="7" height="12" fill="#56d4c8"/><rect x="490" y="12" width="7" height="12" fill="#56d4c8"/><rect x="497" y="12" width="7" height="12" fill="#56d4c8"/><rect x="504" y="12" width="7" height="12" fill="#3a9e95"/><rect x="0" y="24" width="7" height="12" fill="#56d4c8"/><rect x="7" y="24" width="7" height="12" fill="#56d4c8"/><rect x="14" y="24" width="7" height="12" fill="#3a9e95"/><rect x="119" y="24" width="7" height="12" fill="#2a7a72"/><rect x="126" y="24" width="7" height="12" fill="#56d4c8"/><rect x="133" y="24" width="7" height="12" fill="#56d4c8"/><rect x="210" y="24" width="7" height="12" fill="#56d4c8"/><rect x="217" y="24" width="7" height="12" fill="#56d4c8"/><rect x="224" y="24" width="7" height="12" fill="#3a9e95"/><rect x="238" y="24" width="7" height="12" fill="#56d4c8"/><rect x="245" y="24" width="7" height="12" fill="#56d4c8"/><rect x="252" y="24" width="7" height="12" fill="#2a7a72"/><rect x="322" y="24" width="7" height="12" fill="#3a9e95"/><rect x="329" y="24" width="7" height="12" fill="#56d4c8"/><rect x="336" y="24" width="7" height="12" fill="#2a7a72"/><rect x="406" y="24" width="7" height="12" fill="#2a7a72"/><rect x="413" y="24" width="7" height="12" fill="#56d4c8"/><rect x="420" y="24" width="7" height="12" fill="#56d4c8"/><rect x="497" y="24" width="7" height="12" fill="#56d4c8"/><rect x="504" y="24" width="7" height="12" fill="#56d4c8"/><rect x="511" y="24" width="7" height="12" fill="#2a7a72"/><rect x="7" y="36" width="7" height="12" fill="#3a9e95"/><rect x="14" y="36" width="7" height="12" fill="#56d4c8"/><rect x="21" y="36" width="7" height="12" fill="#56d4c8"/><rect x="28" y="36" width="7" height="12" fill="#56d4c8"/><rect x="35" y="36" width="7" height="12" fill="#56d4c8"/><rect x="42" y="36" width="7" height="12" fill="#56d4c8"/><rect x="49" y="36" width="7" height="12" fill="#56d4c8"/><rect x="56" y="36" width="7" height="12" fill="#56d4c8"/><rect x="63" y="36" width="7" height="12" fill="#56d4c8"/><rect x="70" y="36" width="7" height="12" fill="#56d4c8"/><rect x="77" y="36" width="7" height="12" fill="#56d4c8"/><rect x="84" y="36" width="7" height="12" fill="#56d4c8"/><rect x="91" y="36" width="7" height="12" fill="#56d4c8"/><rect x="98" y="36" width="7" height="12" fill="#2a7a72"/><rect x="119" y="36" width="7" height="12" fill="#2a7a72"/><rect x="126" y="36" width="7" height="12" fill="#56d4c8"/><rect x="133" y="36" width="7" height="12" fill="#56d4c8"/><rect x="210" y="36" width="7" height="12" fill="#56d4c8"/><rect x="217" y="36" width="7" height="12" fill="#56d4c8"/><rect x="224" y="36" width="7" height="12" fill="#3a9e95"/><rect x="238" y="36" width="7" height="12" fill="#56d4c8"/><rect x="245" y="36" width="7" height="12" fill="#56d4c8"/><rect x="252" y="36" width="7" height="12" fill="#2a7a72"/><rect x="322" y="36" width="7" height="12" fill="#2a7a72"/><rect x="329" y="36" width="7" height="12" fill="#56d4c8"/><rect x="336" y="36" width="7" height="12" fill="#3a9e95"/><rect x="357" y="36" width="7" height="12" fill="#56d4c8"/><rect x="364" y="36" width="7" height="12" fill="#56d4c8"/><rect x="371" y="36" width="7" height="12" fill="#56d4c8"/><rect x="378" y="36" width="7" height="12" fill="#56d4c8"/><rect x="385" y="36" width="7" height="12" fill="#56d4c8"/><rect x="406" y="36" width="7" height="12" fill="#2a7a72"/><rect x="413" y="36" width="7" height="12" fill="#56d4c8"/><rect x="420" y="36" width="7" height="12" fill="#56d4c8"/><rect x="497" y="36" width="7" height="12" fill="#56d4c8"/><rect x="504" y="36" width="7" height="12" fill="#56d4c8"/><rect x="511" y="36" width="7" height="12" fill="#2a7a72"/><rect x="525" y="36" width="7" height="12" fill="#3a9e95"/><rect x="532" y="36" width="7" height="12" fill="#56d4c8"/><rect x="539" y="36" width="7" height="12" fill="#56d4c8"/><rect x="546" y="36" width="7" height="12" fill="#56d4c8"/><rect x="553" y="36" width="7" height="12" fill="#56d4c8"/><rect x="560" y="36" width="7" height="12" fill="#56d4c8"/><rect x="567" y="36" width="7" height="12" fill="#56d4c8"/><rect x="574" y="36" width="7" height="12" fill="#56d4c8"/><rect x="581" y="36" width="7" height="12" fill="#56d4c8"/><rect x="588" y="36" width="7" height="12" fill="#56d4c8"/><rect x="595" y="36" width="7" height="12" fill="#56d4c8"/><rect x="602" y="36" width="7" height="12" fill="#56d4c8"/><rect x="609" y="36" width="7" height="12" fill="#2a7a72"/><rect x="140" y="48" width="7" height="12" fill="#3a9e95"/><rect x="147" y="48" width="7" height="12" fill="#56d4c8"/><rect x="154" y="48" width="7" height="12" fill="#2a7a72"/><rect x="168" y="48" width="7" height="12" fill="#2a7a72"/><rect x="175" y="48" width="7" height="12" fill="#56d4c8"/><rect x="182" y="48" width="7" height="12" fill="#56d4c8"/><rect x="259" y="48" width="7" height="12" fill="#56d4c8"/><rect x="266" y="48" width="7" height="12" fill="#56d4c8"/><rect x="273" y="48" width="7" height="12" fill="#2a7a72"/><rect x="287" y="48" width="7" height="12" fill="#56d4c8"/><rect x="294" y="48" width="7" height="12" fill="#56d4c8"/><rect x="301" y="48" width="7" height="12" fill="#2a7a72"/><rect x="371" y="48" width="7" height="12" fill="#3a9e95"/><rect x="378" y="48" width="7" height="12" fill="#56d4c8"/><rect x="385" y="48" width="7" height="12" fill="#2a7a72"/><rect x="455" y="48" width="7" height="12" fill="#2a7a72"/><rect x="462" y="48" width="7" height="12" fill="#56d4c8"/><rect x="469" y="48" width="7" height="12" fill="#56d4c8"/><rect x="546" y="48" width="7" height="12" fill="#56d4c8"/><rect x="553" y="48" width="7" height="12" fill="#56d4c8"/><rect x="574" y="48" width="7" height="12" fill="#3a9e95"/><rect x="581" y="48" width="7" height="12" fill="#56d4c8"/><rect x="588" y="48" width="7" height="12" fill="#3a9e95"/><rect x="140" y="60" width="7" height="12" fill="#3a9e95"/><rect x="147" y="60" width="7" height="12" fill="#56d4c8"/><rect x="154" y="60" width="7" height="12" fill="#2a7a72"/><rect x="168" y="60" width="7" height="12" fill="#2a7a72"/><rect x="175" y="60" width="7" height="12" fill="#56d4c8"/><rect x="182" y="60" width="7" height="12" fill="#56d4c8"/><rect x="252" y="60" width="7" height="12" fill="#56d4c8"/><rect x="259" y="60" width="7" height="12" fill="#56d4c8"/><rect x="266" y="60" width="7" height="12" fill="#3a9e95"/><rect x="287" y="60" width="7" height="12" fill="#56d4c8"/><rect x="294" y="60" width="7" height="12" fill="#56d4c8"/><rect x="301" y="60" width="7" height="12" fill="#3a9e95"/><rect x="364" y="60" width="7" height="12" fill="#3a9e95"/><rect x="371" y="60" width="7" height="12" fill="#56d4c8"/><rect x="378" y="60" width="7" height="12" fill="#56d4c8"/><rect x="455" y="60" width="7" height="12" fill="#2a7a72"/><rect x="462" y="60" width="7" height="12" fill="#56d4c8"/><rect x="469" y="60" width="7" height="12" fill="#56d4c8"/><rect x="539" y="60" width="7" height="12" fill="#56d4c8"/><rect x="546" y="60" width="7" height="12" fill="#56d4c8"/><rect x="553" y="60" width="7" height="12" fill="#3a9e95"/><rect x="574" y="60" width="7" height="12" fill="#3a9e95"/><rect x="581" y="60" width="7" height="12" fill="#56d4c8"/><rect x="588" y="60" width="7" height="12" fill="#3a9e95"/><rect x="7" y="72" width="7" height="12" fill="#56d4c8"/><rect x="14" y="72" width="7" height="12" fill="#56d4c8"/><rect x="21" y="72" width="7" height="12" fill="#56d4c8"/><rect x="28" y="72" width="7" height="12" fill="#56d4c8"/><rect x="35" y="72" width="7" height="12" fill="#56d4c8"/><rect x="42" y="72" width="7" height="12" fill="#56d4c8"/><rect x="49" y="72" width="7" height="12" fill="#56d4c8"/><rect x="56" y="72" width="7" height="12" fill="#56d4c8"/><rect x="63" y="72" width="7" height="12" fill="#56d4c8"/><rect x="70" y="72" width="7" height="12" fill="#56d4c8"/><rect x="77" y="72" width="7" height="12" fill="#56d4c8"/><rect x="84" y="72" width="7" height="12" fill="#56d4c8"/><rect x="91" y="72" width="7" height="12" fill="#56d4c8"/><rect x="98" y="72" width="7" height="12" fill="#3a9e95"/><rect x="119" y="72" width="7" height="12" fill="#2a7a72"/><rect x="126" y="72" width="7" height="12" fill="#56d4c8"/><rect x="133" y="72" width="7" height="12" fill="#56d4c8"/><rect x="140" y="72" width="7" height="12" fill="#56d4c8"/><rect x="147" y="72" width="7" height="12" fill="#56d4c8"/><rect x="154" y="72" width="7" height="12" fill="#56d4c8"/><rect x="161" y="72" width="7" height="12" fill="#56d4c8"/><rect x="168" y="72" width="7" height="12" fill="#56d4c8"/><rect x="175" y="72" width="7" height="12" fill="#56d4c8"/><rect x="182" y="72" width="7" height="12" fill="#56d4c8"/><rect x="189" y="72" width="7" height="12" fill="#56d4c8"/><rect x="196" y="72" width="7" height="12" fill="#56d4c8"/><rect x="203" y="72" width="7" height="12" fill="#56d4c8"/><rect x="238" y="72" width="7" height="12" fill="#56d4c8"/><rect x="245" y="72" width="7" height="12" fill="#56d4c8"/><rect x="252" y="72" width="7" height="12" fill="#56d4c8"/><rect x="259" y="72" width="7" height="12" fill="#56d4c8"/><rect x="266" y="72" width="7" height="12" fill="#56d4c8"/><rect x="273" y="72" width="7" height="12" fill="#56d4c8"/><rect x="280" y="72" width="7" height="12" fill="#56d4c8"/><rect x="287" y="72" width="7" height="12" fill="#56d4c8"/><rect x="294" y="72" width="7" height="12" fill="#56d4c8"/><rect x="301" y="72" width="7" height="12" fill="#56d4c8"/><rect x="308" y="72" width="7" height="12" fill="#56d4c8"/><rect x="315" y="72" width="7" height="12" fill="#56d4c8"/><rect x="322" y="72" width="7" height="12" fill="#2a7a72"/><rect x="406" y="72" width="7" height="12" fill="#2a7a72"/><rect x="413" y="72" width="7" height="12" fill="#56d4c8"/><rect x="420" y="72" width="7" height="12" fill="#56d4c8"/><rect x="427" y="72" width="7" height="12" fill="#56d4c8"/><rect x="434" y="72" width="7" height="12" fill="#56d4c8"/><rect x="441" y="72" width="7" height="12" fill="#56d4c8"/><rect x="448" y="72" width="7" height="12" fill="#56d4c8"/><rect x="455" y="72" width="7" height="12" fill="#56d4c8"/><rect x="462" y="72" width="7" height="12" fill="#56d4c8"/><rect x="469" y="72" width="7" height="12" fill="#56d4c8"/><rect x="476" y="72" width="7" height="12" fill="#56d4c8"/><rect x="483" y="72" width="7" height="12" fill="#56d4c8"/><rect x="490" y="72" width="7" height="12" fill="#3a9e95"/><rect x="525" y="72" width="7" height="12" fill="#3a9e95"/><rect x="532" y="72" width="7" height="12" fill="#56d4c8"/><rect x="539" y="72" width="7" height="12" fill="#56d4c8"/><rect x="546" y="72" width="7" height="12" fill="#56d4c8"/><rect x="553" y="72" width="7" height="12" fill="#56d4c8"/><rect x="560" y="72" width="7" height="12" fill="#56d4c8"/><rect x="567" y="72" width="7" height="12" fill="#56d4c8"/><rect x="574" y="72" width="7" height="12" fill="#56d4c8"/><rect x="581" y="72" width="7" height="12" fill="#56d4c8"/><rect x="588" y="72" width="7" height="12" fill="#56d4c8"/><rect x="595" y="72" width="7" height="12" fill="#56d4c8"/><rect x="602" y="72" width="7" height="12" fill="#56d4c8"/><rect x="609" y="72" width="7" height="12" fill="#56d4c8"/>
</svg>