<svg xmlns="http://www.w3.org/2000/svg" viewBox="0 0 460 96" width="460" height="96">
<rect x="0" y="0" width="10" height="16" fill="#2a7a72"/><rect x="10" y="0" width="10" height="16" fill="#56d4c8"/><rect x="20" y="0" width="10" height="16" fill="#56d4c8"/><rect x="30" y="0" width="10" height="16" fill="#56d4c8"/><rect x="40" y="0" width="10" height="16" fill="#56d4c8"/><rect x="50" y="0" width="10" height="16" fill="#56d4c8"/><rect x="60" y="0" width="10" height="16" fill="#56d4c8"/><rect x="70" y="0" width="10" height="16" fill="#56d4c8"/><rect x="90" y="0" width="10" height="16" fill="#56d4c8"/><rect x="100" y="0" width="10" height="16" fill="#56d4c8"/><rect x="110" y="0" width="10" height="16" fill="#56d4c8"/><rect x="120" y="0" width="10" height="16" fill="#56d4c8"/><rect x="130" y="0" width="10" height="16" fill="#56d4c8"/><rect x="140" y="0" width="10" height="16" fill="#56d4c8"/><rect x="170" y="0" width="10" height="16" fill="#56d4c8"/><rect x="180" y="0" width="10" height="16" fill="#56d4c8"/><rect x="190" y="0" width="10" height="16" fill="#56d4c8"/><rect x="200" y="0" width="10" height="16" fill="#56d4c8"/><rect x="210" y="0" width="10" height="16" fill="#56d4c8"/><rect x="220" y="0" width="10" height="16" fill="#56d4c8"/><rect x="310" y="0" width="10" height="16" fill="#56d4c8"/><rect x="320" y="0" width="10" height="16" fill="#56d4c8"/><rect x="330" y="0" width="10" height="16" fill="#56d4c8"/><rect x="340" y="0" width="10" height="16" fill="#56d4c8"/><rect x="350" y="0" width="10" height="16" fill="#56d4c8"/><rect x="360" y="0" width="10" height="16" fill="#56d4c8"/><rect x="390" y="0" width="10" height="16" fill="#56d4c8"/><rect x="400" y="0" width="10" height="16" fill="#56d4c8"/><rect x="410" y="0" width="10" height="16" fill="#56d4c8"/><rect x="420" y="0" width="10" height="16" fill="#56d4c8"/><rect x="430" y="0" width="10" height="16" fill="#56d4c8"/><rect x="440" y="0" width="10" height="16" fill="#56d4c8"/><rect x="450" y="0" width="10" height="16" fill="#56d4c8"/><rect x="0" y="16" width="10" height="16" fill="#2a7a72"/><rect x="10" y="16" width="10" height="16" fill="#56d4c8"/><rect x="20" y="16" width="10" height="16" fill="#56d4c8"/><rect x="90" y="16" width="10" height="16" fill="#56d4c8"/><rect x="100" y="16" width="10" height="16" fill="#56d4c8"/><rect x="140" y="16" width="10" height="16" fill="#56d4c8"/><rect x="150" y="16" width="10" height="16" fill="#56d4c8"/><rect x="170" y="16" width="10" height="16" fill="#56d4c8"/><rect x="180" y="16" width="10" height="16" fill="#56d4c8"/><rect x="220" y="16" width="10" height="16" fill="#56d4c8"/><rect x="230" y="16" width="10" height="16" fill="#56d4c8"/><rect x="310" y="16" width="10" height="16" fill="#56d4c8"/><rect x="320" y="16" width="10" height="16" fill="#56d4c8"/><rect x="360" y="16" width="10" height="16" fill="#56d4c8"/><rect x="370" y="16" width="10" height="16" fill="#56d4c8"/><rect x="390" y="16" width="10" height="16" fill="#56d4c8"/><rect x="400" y="16" width="10" height="16" fill="#56d4c8"/><rect x="0" y="32" width="10" height="16" fill="#2a7a72"/><rect x="10" y="32" width="10" height="16" fill="#56d4c8"/><rect x="20" y="32" width="10" height="16" fill="#56d4c8"/><rect x="30" y="32" width="10" height="16" fill="#56d4c8"/><rect x="40" y="32" width="10" height="16" fill="#56d4c8"/><rect x="50" y="32" width="10" height="16" fill="#56d4c8"/><rect x="60" y="32" width="10" height="16" fill="#56d4c8"/><rect x="70" y="32" width="10" height="16" fill="#56d4c8"/><rect x="90" y="32" width="10" height="16" fill="#56d4c8"/><rect x="100" y="32" width="10" height="16" fill="#56d4c8"/><rect x="140" y="32" width="10" height="16" fill="#56d4c8"/><rect x="150" y="32" width="10" height="16" fill="#56d4c8"/><rect x="170" y="32" width="10" height="16" fill="#56d4c8"/><rect x="180" y="32" width="10" height="16" fill="#56d4c8"/><rect x="220" y="32" width="10" height="16" fill="#56d4c8"/><rect x="230" y="32" width="10" height="16" fill="#56d4c8"/><rect x="250" y="32" width="10" height="16" fill="#2a7a72"/><rect x="260" y="32" width="10" height="16" fill="#2a7a72"/><rect x="270" y="32" width="10" height="16" fill="#2a7a72"/><rect x="310" y="32" width="10" height="16" fill="#56d4c8"/><rect x="320" y="32" width="10" height="16" fill="#56d4c8"/><rect x="360" y="32" width="10" height="16" fill="#56d4c8"/><rect x="370" y="32" width="10" height="16" fill="#56d4c8"/><rect x="390" y="32" width="10" height="16" fill="#56d4c8"/><rect x="400" y="32" width="10" height="16" fill="#56d4c8"/><rect x="410" y="32" width="10" height="16" fill="#56d4c8"/><rect x="420" y="32" width="10" height="16" fill="#56d4c8"/><rect x="430" y="32" width="10" height="16" fill="#56d4c8"/><rect x="0" y="48" width="10" height="16" fill="#2a7a72"/><rect x="60" y="48" width="10" height="16" fill="#56d4c8"/><rect x="70" y="48" width="10" height="16" fill="#56d4c8"/><rect x="90" y="48" width="10" height="16" fill="#56d4c8"/><rect x="100" y="48" width="10" height="16" fill="#56d4c8"/><rect x="140" y="48" width="10" height="16" fill="#56d4c8"/><rect x="150" y="48" width="10" height="16" fill="#56d4c8"/><rect x="170" y="48" width="10" height="16" fill="#56d4c8"/><rect x="180" y="48" width="10" height="16" fill="#56d4c8"/><rect x="220" y="48" width="10" height="16" fill="#56d4c8"/><rect x="230" y="48" width="10" height="16" fill="#56d4c8"/><rect x="310" y="48" width="10" height="16" fill="#56d4c8"/><rect x="320" y="48" width="10" height="16" fill="#56d4c8"/><rect x="360" y="48" width="10" height="16" fill="#56d4c8"/><rect x="370" y="48" width="10" height="16" fill="#56d4c8"/><rect x="390" y="48" width="10" height="16" fill="#56d4c8"/><rect x="400" y="48" width="10" height="16" fill="#56d4c8"/><rect x="0" y="64" width="10" height="16" fill="#2a7a72"/><rect x="10" y="64" width="10" height="16" fill="#56d4c8"/><rect x="20" y="64" width="10" height="16" fill="#56d4c8"/><rect x="30" y="64" width="10" height="16" fill="#56d4c8"/><rect x="40" y="64" width="10" height="16" fill="#56d4c8"/><rect x="50" y="64" width="10" height="16" fill="#56d4c8"/><rect x="60" y="64" width="10" height="16" fill="#56d4c8"/><rect x="70" y="64" width="10" height="16" fill="#56d4c8"/><rect x="90" y="64" width="10" height="16" fill="#56d4c8"/><rect x="100" y="64" width="10" height="16" fill="#56d4c8"/><rect x="110" y="64" width="10" height="16" fill="#56d4c8"/><rect x="120" y="64" width="10" height="16" fill="#56d4c8"/><rect x="130" y="64" width="10" height="16" fill="#56d4c8"/><rect x="140" y="64" width="10" height="16" fill="#56d4c8"/><rect x="170" y="64" width="10" height="16" fill="#56d4c8"/><rect x="180" y="64" width="10" height="16" fill="#56d4c8"/><rect x="190" y="64" width="10" height="16" fill="#56d4c8"/><rect x="200" y="64" width="10" height="16" fill="#56d4c8"/><rect x="210" y="64" width="10" height="16" fill="#56d4c8"/><rect x="220" y="64" width="10" height="16" fill="#56d4c8"/><rect x="250" y="64" width="10" height="16" fill="#2a7a72"/><rect x="260" y="64" width="10" height="16" fill="#2a7a72"/><rect x="270" y="64" width="10" height="16" fill="#2a7a72"/><rect x="310" y="64" width="10" height="16" fill="#56d4c8"/><rect x="320" y="64" width="10" height="16" fill="#56d4c8"/><rect x="330" y="64" width="10" height="16" fill="#56d4c8"/><rect x="340" y="64" width="10" height="16" fill="#56d4c8"/><rect x="350" y="64" width="10" height="16" fill="#56d4c8"/><rect x="360" y="64" width="10" height="16" fill="#56d4c8"/><rect x="390" y="64" width="10" height="16" fill="#56d4c8"/><rect x="400" y="64" width="10" height="16" fill="#56d4c8"/><rect x="410" y="64" width="10" height="16" fill="#56d4c8"/><rect x="420" y="64" width="10" height="16" fill="#56d4c8"/><rect x="430" y="64" width="10" height="16" fill="#56d4c8"/><rect x="440" y="64" width="10" height="16" fill="#56d4c8"/><rect x="450" y="64" width="10" height="16" fill="#56d4c8"/><rect x="0" y="80" width="10" height="16" fill="#2a7a72"/><rect x="10" y="80" width="10" height="16" fill="#2a7a72"/><rect x="20" y="80" width="10" height="16" fill="#2a7a72"/><rect x="30" y="80" width="10" height="16" fill="#2a7a72"/><rect x="40" y="80" width="10" height="16" fill="#2a7a72"/><rect x="50" y="80" width="10" height="16" fill="#2a7a72"/><rect x="60" y="80" width="10" height="16" fill="#2a7a72"/><rect x="70" y="80" width="10" height="16" fill="#2a7a72"/><rect x="80" y="80" width="10" height="16" fill="#2a7a72"/><rect x="90" y="80" width="10" height="16" fill="#2a7a72"/><rect x="100" y="80" width="10" height="16" fill="#2a7a72"/><rect x="110" y="80" width="10" height="16" fill="#2a7a72"/><rect x="120" y="80" width="10" height="16" fill="#2a7a72"/><rect x="130" y="80" width="10" height="16" fill="#2a7a72"/><rect x="140" y="80" width="10" height="16" fill="#2a7a72"/><rect x="150" y="80" width="10" height="16" fill="#2a7a72"/><rect x="160" y="80" width="10" height="16" fill="#2a7a72"/><rect x="170" y="80" width="10" height="16" fill="#2a7a72"/><rect x="180" y="80" width="10" height="16" fill="#2a7a72"/><rect x="190" y="80" width="10" height="16" fill="#2a7a72"/><rect x="200" y="80" width="10" height="16" fill="#2a7a72"/><rect x="210" y="80" width="10" height="16" fill="#2a7a72"/><rect x="220" y="80" width="10" height="16" fill="#2a7a72"/><rect x="230" y="80" width="10" height="16" fill="#2a7a72"/>
</svg>