<svg xmlns="http://www.w3.org/2000/svg" viewBox="0 0 528 42" width="528" height="42">
<rect x="6" y="0" width="6" height="6" fill="#56d4c8"/><rect x="12" y="0" width="6" height="6" fill="#56d4c8"/><rect x="18" y="0" width="6" height="6" fill="#56d4c8"/><rect x="24" y="0" width="6" height="6" fill="#56d4c8"/><rect x="30" y="0" width="6" height="6" fill="#56d4c8"/><rect x="36" y="0" width="6" height="6" fill="#56d4c8"/><rect x="42" y="0" width="6" height="6" fill="#56d4c8"/><rect x="48" y="0" width="6" height="6" fill="#56d4c8"/><rect x="54" y="0" width="6" height="6" fill="#56d4c8"/><rect x="60" y="0" width="6" height="6" fill="#56d4c8"/><rect x="66" y="0" width="6" height="6" fill="#56d4c8"/><rect x="72" y="0" width="6" height="6" fill="#56d4c8"/><rect x="78" y="0" width="6" height="6" fill="#56d4c8"/><rect x="102" y="0" width="6" height="6" fill="#2a7a72"/><rect x="108" y="0" width="6" height="6" fill="#56d4c8"/><rect x="114" y="0" width="6" height="6" fill="#56d4c8"/><rect x="120" y="0" width="6" height="6" fill="#56d4c8"/><rect x="126" y="0" width="6" height="6" fill="#56d4c8"/><rect x="132" y="0" width="6" height="6" fill="#56d4c8"/><rect x="138" y="0" width="6" height="6" fill="#56d4c8"/><rect x="144" y="0" width="6" height="6" fill="#56d4c8"/><rect x="150" y="0" width="6" height="6" fill="#56d4c8"/><rect x="156" y="0" width="6" height="6" fill="#56d4c8"/><rect x="162" y="0" width="6" height="6" fill="#56d4c8"/><rect x="168" y="0" width="6" height="6" fill="#56d4c8"/><rect x="174" y="0" width="6" height="6" fill="#56d4c8"/><rect x="204" y="0" width="6" height="6" fill="#56d4c8"/><rect x="210" y="0" width="6" height="6" fill="#56d4c8"/><rect x="216" y="0" width="6" height="6" fill="#56d4c8"/><rect x="222" y="0" width="6" height="6" fill="#56d4c8"/><rect x="228" y="0" width="6" height="6" fill="#56d4c8"/><rect x="234" y="0" width="6" height="6" fill="#56d4c8"/><rect x="240" y="0" width="6" height="6" fill="#56d4c8"/><rect x="246" y="0" width="6" height="6" fill="#56d4c8"/><rect x="252" y="0" width="6" height="6" fill="#56d4c8"/><rect x="258" y="0" width="6" height="6" fill="#56d4c8"/><rect x="264" y="0" width="6" height="6" fill="#56d4c8"/><rect x="270" y="0" width="6" height="6" fill="#56d4c8"/><rect x="276" y="0" width="6" height="6" fill="#2a7a72"/><rect x="348" y="0" width="6" height="6" fill="#2a7a72"/><rect x="354" y="0" width="6" height="6" fill="#56d4c8"/><rect x="360" y="0" width="6" height="6" fill="#56d4c8"/><rect x="366" y="0" width="6" height="6" fill="#56d4c8"/><rect x="372" y="0" width="6" height="6" fill="#56d4c8"/><rect x="378" y="0" width="6" height="6" fill="#56d4c8"/><rect x="384" y="0" width="6" height="6" fill="#56d4c8"/><rect x="390" y="0" width="6" height="6" fill="#56d4c8"/><rect x="396" y="0" width="6" height="6" fill="#56d4c8"/><rect x="402" y="0" width="6" height="6" fill="#56d4c8"/><rect x="408" y="0" width="6" height="6" fill="#56d4c8"/><rect x="414" y="0" width="6" height="6" fill="#56d4c8"/><rect x="420" y="0" width="6" height="6" fill="#3a9e95"/><rect x="450" y="0" width="6" height="6" fill="#3a9e95"/><rect x="456" y="0" width="6" height="6" fill="#56d4c8"/><rect x="462" y="0" width="6" height="6" fill="#56d4c8"/><rect x="468" y="0" width="6" height="6" fill="#56d4c8"/><rect x="474" y="0" width="6" height="6" fill="#56d4c8"/><rect x="480" y="0" width="6" height="6" fill="#56d4c8"/><rect x="486" y="0" width="6" height="6" fill="#56d4c8"/><rect x="492" y="0" width="6" height="6" fill="#56d4c8"/><rect x="498" y="0" width="6" height="6" fill="#56d4c8"/><rect x="504" y="0" width="6" height="6" fill="#56d4c8"/><rect x="510" y="0" width="6" height="6" fill="#56d4c8"/><rect x="516" y="0" width="6" height="6" fill="#56d4c8"/><rect x="522" y="0" width="6" height="6" fill="#2a7a72"/><rect x="0" y="6" width="6" height="6" fill="#56d4c8"/><rect x="6" y="6" width="6" height="6" fill="#56d4c8"/><rect x="12" y="6" width="6" height="6" fill="#2a7a72"/><rect x="174" y="6" width="6" height="6" fill="#56d4c8"/><rect x="180" y="6" width="6" height="6" fill="#56d4c8"/><rect x="186" y="6" width="6" height="6" fill="#3a9e95"/><rect x="270" y="6" width="6" height="6" fill="#3a9e95"/><rect x="276" y="6" width="6" height="6" fill="#56d4c8"/><rect x="282" y="6" width="6" height="6" fill="#56d4c8"/><rect x="348" y="6" width="6" height="6" fill="#2a7a72"/><rect x="354" y="6" width="6" height="6" fill="#56d4c8"/><rect x="360" y="6" width="6" height="6" fill="#56d4c8"/><rect x="420" y="6" width="6" height="6" fill="#56d4c8"/><rect x="426" y="6" width="6" height="6" fill="#56d4c8"/><rect x="432" y="6" width="6" height="6" fill="#3a9e95"/><rect x="0" y="12" width="6" height="6" fill="#56d4c8"/><rect x="6" y="12" width="6" height="6" fill="#56d4c8"/><rect x="12" y="12" width="6" height="6" fill="#3a9e95"/><rect x="102" y="12" width="6" height="6" fill="#2a7a72"/><rect x="108" y="12" width="6" height="6" fill="#56d4c8"/><rect x="114" y="12" width="6" height="6" fill="#56d4c8"/><rect x="180" y="12" width="6" height="6" fill="#56d4c8"/><rect x="186" y="12" width="6" height="6" fill="#56d4c8"/><rect x="192" y="12" width="6" height="6" fill="#3a9e95"/><rect x="204" y="12" width="6" height="6" fill="#56d4c8"/><rect x="210" y="12" width="6" height="6" fill="#56d4c8"/><rect x="216" y="12" width="6" height="6" fill="#2a7a72"/><rect x="276" y="12" width="6" height="6" fill="#3a9e95"/><rect x="282" y="12" width="6" height="6" fill="#56d4c8"/><rect x="288" y="12" width="6" height="6" fill="#2a7a72"/><rect x="348" y="12" width="6" height="6" fill="#2a7a72"/><rect x="354" y="12" width="6" height="6" fill="#56d4c8"/><rect x="360" y="12" width="6" height="6" fill="#56d4c8"/><rect x="426" y="12" width="6" height="6" fill="#56d4c8"/><rect x="432" y="12" width="6" height="6" fill="#56d4c8"/><rect x="438" y="12" width="6" height="6" fill="#2a7a72"/><rect x="6" y="18" width="6" height="6" fill="#3a9e95"/><rect x="12" y="18" width="6" height="6" fill="#56d4c8"/><rect x="18" y="18" width="6" height="6" fill="#56d4c8"/><rect x="24" y="18" width="6" height="6" fill="#56d4c8"/><rect x="30" y="18" width="6" height="6" fill="#56d4c8"/><rect x="36" y="18" width="6" height="6" fill="#56d4c8"/><rect x="42" y="18" width="6" height="6" fill="#56d4c8"/><rect x="48" y="18" width="6" height="6" fill="#56d4c8"/><rect x="54" y="18" width="6" height="6" fill="#56d4c8"/><rect x="60" y="18" width="6" height="6" fill="#56d4c8"/><rect x="66" y="18" width="6" height="6" fill="#56d4c8"/><rect x="72" y="18" width="6" height="6" fill="#56d4c8"/><rect x="78" y="18" width="6" height="6" fill="#56d4c8"/><rect x="84" y="18" width="6" height="6" fill="#2a7a72"/><rect x="102" y="18" width="6" height="6" fill="#2a7a72"/><rect x="108" y="18" width="6" height="6" fill="#56d4c8"/><rect x="114" y="18" width="6" height="6" fill="#56d4c8"/><rect x="180" y="18" width="6" height="6" fill="#56d4c8"/><rect x="186" y="18" width="6" height="6" fill="#56d4c8"/><rect x="192" y="18" width="6" height="6" fill="#3a9e95"/><rect x="204" y="18" width="6" height="6" fill="#56d4c8"/><rect x="210" y="18" width="6" height="6" fill="#56d4c8"/><rect x="216" y="18" width="6" height="6" fill="#2a7a72"/><rect x="276" y="18" width="6" height="6" fill="#2a7a72"/><rect x="282" y="18" width="6" height="6" fill="#56d4c8"/><rect x="288" y="18" width="6" height="6" fill="#3a9e95"/><rect x="306" y="18" width="6" height="6" fill="#56d4c8"/><rect x="312" y="18" width="6" height="6" fill="#56d4c8"/><rect x="318" y="18" width="6" height="6" fill="#56d4c8"/><rect x="324" y="18" width="6" height="6" fill="#56d4c8"/><rect x="330" y="18" width="6" height="6" fill="#56d4c8"/><rect x="348" y="18" width="6" height="6" fill="#2a7a72"/><rect x="354" y="18" width="6" height="6" fill="#56d4c8"/><rect x="360" y="18" width="6" height="6" fill="#56d4c8"/><rect x="426" y="18" width="6" height="6" fill="#56d4c8"/><rect x="432" y="18" width="6" height="6" fill="#56d4c8"/><rect x="438" y="18" width="6" height="6" fill="#2a7a72"/><rect x="450" y="18" width="6" height="6" fill="#3a9e95"/><rect x="456" y="18" width="6" height="6" fill="#56d4c8"/><rect x="462" y="18" width="6" height="6" fill="#56d4c8"/><rect x="468" y="18" width="6" height="6" fill="#56d4c8"/><rect x="474" y="18" width="6" height="6" fill="#56d4c8"/><rect x="480" y="18" width="6" height="6" fill="#56d4c8"/><rect x="486" y="18" width="6" height="6" fill="#56d4c8"/><rect x="492" y="18" width="6" height="6" fill="#56d4c8"/><rect x="498" y="18" width="6" height="6" fill="#56d4c8"/><rect x="504" y="18" width="6" height="6" fill="#56d4c8"/><rect x="510" y="18" width="6" height="6" fill="#56d4c8"/><rect x="516" y="18" width="6" height="6" fill="#56d4c8"/><rect x="522" y="18" width="6" height="6" fill="#2a7a72"/><rect x="78" y="24" width="6" height="6" fill="#3a9e95"/><rect x="84" y="24" width="6" height="6" fill="#56d4c8"/><rect x="90" y="24" width="6" height="6" fill="#2a7a72"/><rect x="102" y="24" width="6" height="6" fill="#2a7a72"/><rect x="108" y="24" width="6" height="6" fill="#56d4c8"/><rect x="114" y="24" width="6" height="6" fill="#56d4c8"/><rect x="180" y="24" width="6" height="6" fill="#56d4c8"/><rect x="186" y="24" width="6" height="6" fill="#56d4c8"/><rect x="192" y="24" width="6" height="6" fill="#2a7a72"/><rect x="204" y="24" width="6" height="6" fill="#56d4c8"/><rect x="210" y="24" width="6" height="6" fill="#56d4c8"/><rect x="216" y="24" width="6" height="6" fill="#2a7a72"/><rect x="276" y="24" width="6" height="6" fill="#3a9e95"/><rect x="282" y="24" width="6" height="6" fill="#56d4c8"/><rect x="288" y="24" width="6" height="6" fill="#2a7a72"/><rect x="348" y="24" width="6" height="6" fill="#2a7a72"/><rect x="354" y="24" width="6" height="6" fill="#56d4c8"/><rect x="360" y="24" width="6" height="6" fill="#56d4c8"/><rect x="426" y="24" width="6" height="6" fill="#56d4c8"/><rect x="432" y="24" width="6" height="6" fill="#56d4c8"/><rect x="450" y="24" width="6" height="6" fill="#3a9e95"/><rect x="456" y="24" width="6" height="6" fill="#56d4c8"/><rect x="462" y="24" width="6" height="6" fill="#3a9e95"/><rect x="78" y="30" width="6" height="6" fill="#3a9e95"/><rect x="84" y="30" width="6" height="6" fill="#56d4c8"/><rect x="90" y="30" width="6" height="6" fill="#2a7a72"/><rect x="102" y="30" width="6" height="6" fill="#2a7a72"/><rect x="108" y="30" width="6" height="6" fill="#56d4c8"/><rect x="114" y="30" width="6" height="6" fill="#56d4c8"/><rect x="174" y="30" width="6" height="6" fill="#56d4c8"/><rect x="180" y="30" width="6" height="6" fill="#56d4c8"/><rect x="186" y="30" width="6" height="6" fill="#3a9e95"/><rect x="204" y="30" width="6" height="6" fill="#56d4c8"/><rect x="210" y="30" width="6" height="6" fill="#56d4c8"/><rect x="216" y="30" width="6" height="6" fill="#3a9e95"/><rect x="270" y="30" width="6" height="6" fill="#3a9e95"/><rect x="276" y="30" width="6" height="6" fill="#56d4c8"/><rect x="282" y="30" width="6" height="6" fill="#56d4c8"/><rect x="348" y="30" width="6" height="6" fill="#2a7a72"/><rect x="354" y="30" width="6" height="6" fill="#56d4c8"/><rect x="360" y="30" width="6" height="6" fill="#56d4c8"/><rect x="420" y="30" width="6" height="6" fill="#56d4c8"/><rect x="426" y="30" width="6" height="6" fill="#56d4c8"/><rect x="432" y="30" width="6" height="6" fill="#3a9e95"/><rect x="450" y="30" width="6" height="6" fill="#3a9e95"/><rect x="456" y="30" width="6" height="6" fill="#56d4c8"/><rect x="462" y="30" width="6" height="6" fill="#3a9e95"/><rect x="6" y="36" width="6" height="6" fill="#56d4c8"/><rect x="12" y="36" width="6" height="6" fill="#56d4c8"/><rect x="18" y="36" width="6" height="6" fill="#56d4c8"/><rect x="24" y="36" width="6" height="6" fill="#56d4c8"/><rect x="30" y="36" width="6" height="6" fill="#56d4c8"/><rect x="36" y="36" width="6" height="6" fill="#56d4c8"/><rect x="42" y="36" width="6" height="6" fill="#56d4c8"/><rect x="48" y="36" width="6" height="6" fill="#56d4c8"/><rect x="54" y="36" width="6" height="6" fill="#56d4c8"/><rect x="60" y="36" width="6" height="6" fill="#56d4c8"/><rect x="66" y="36" width="6" height="6" fill="#56d4c8"/><rect x="72" y="36" width="6" height="6" fill="#56d4c8"/><rect x="78" y="36" width="6" height="6" fill="#56d4c8"/><rect x="84" y="36" width="6" height="6" fill="#3a9e95"/><rect x="102" y="36" width="6" height="6" fill="#2a7a72"/><rect x="108" y="36" width="6" height="6" fill="#56d4c8"/><rect x="114" y="36" width="6" height="6" fill="#56d4c8"/><rect x="120" y="36" width="6" height="6" fill="#56d4c8"/><rect x="126" y="36" width="6" height="6" fill="#56d4c8"/><rect x="132" y="36" width="6" height="6" fill="#56d4c8"/><rect x="138" y="36" width="6" height="6" fill="#56d4c8"/><rect x="144" y="36" width="6" height="6" fill="#56d4c8"/><rect x="150" y="36" width="6" height="6" fill="#56d4c8"/><rect x="156" y="36" width="6" height="6" fill="#56d4c8"/><rect x="162" y="36" width="6" height="6" fill="#56d4c8"/><rect x="168" y="36" width="6" height="6" fill="#56d4c8"/><rect x="174" y="36" width="6" height="6" fill="#56d4c8"/><rect x="204" y="36" width="6" height="6" fill="#56d4c8"/><rect x="210" y="36" width="6" height="6" fill="#56d4c8"/><rect x="216" y="36" width="6" height="6" fill="#56d4c8"/><rect x="222" y="36" width="6" height="6" fill="#56d4c8"/><rect x="228" y="36" width="6" height="6" fill="#56d4c8"/><rect x="234" y="36" width="6" height="6" fill="#56d4c8"/><rect x="240" y="36" width="6" height="6" fill="#56d4c8"/><rect x="246" y="36" width="6" height="6" fill="#56d4c8"/><rect x="252" y="36" width="6" height="6" fill="#56d4c8"/><rect x="258" y="36" width="6" height="6" fill="#56d4c8"/><rect x="264" y="36" width="6" height="6" fill="#56d4c8"/><rect x="270" y="36" width="6" height="6" fill="#56d4c8"/><rect x="276" y="36" width="6" height="6" fill="#2a7a72"/><rect x="348" y="36" width="6" height="6" fill="#2a7a72"/><rect x="354" y="36" width="6" height="6" fill="#56d4c8"/><rect x="360" y="36" width="6" height="6" fill="#56d4c8"/><rect x="366" y="36" width="6" height="6" fill="#56d4c8"/><rect x="372" y="36" width="6" height="6" fill="#56d4c8"/><rect x="378" y="36" width="6" height="6" fill="#56d4c8"/><rect x="384" y="36" width="6" height="6" fill="#56d4c8"/><rect x="390" y="36" width="6" height="6" fill="#56d4c8"/><rect x="396" y="36" width="6" height="6" fill="#56d4c8"/><rect x="402" y="36" width="6" height="6" fill="#56d4c8"/><rect x="408" y="36" width="6" height="6" fill="#56d4c8"/><rect x="414" y="36" width="6" height="6" fill="#56d4c8"/><rect x="420" y="36" width="6" height="6" fill="#3a9e95"/><rect x="450" y="36" width="6" height="6" fill="#3a9e95"/><rect x="456" y="36" width="6" height="6" fill="#56d4c8"/><rect x="462" y="36" width="6" height="6" fill="#56d4c8"/><rect x="468" y="36" width="6" height="6" fill="#56d4c8"/><rect x="474" y="36" width="6" height="6" fill="#56d4c8"/><rect x="480" y="36" width="6" height="6" fill="#56d4c8"/><rect x="486" y="36" width="6" height="6" fill="#56d4c8"/><rect x="492" y="36" width="6" height="6" fill="#56d4c8"/><rect x="498" y="36" width="6" height="6" fill="#56d4c8"/><rect x="504" y="36" width="6" height="6" fill="#56d4c8"/><rect x="510" y="36" width="6" height="6" fill="#56d4c8"/><rect x="516" y="36" width="6" height="6" fill="#56d4c8"/><rect x="522" y="36" width="6" height="6" fill="#56d4c8"/>
</svg>